<svg width="51" height="51" viewBox="0 0 51 51" fill="none" xmlns="http://www.w3.org/2000/svg">
<rect width="51" height="51" fill="#372821"/>
<path d="M40.1107 23.152C37.4838 21.0646 32.1575 17.563 26 17.563C19.8425 17.563 14.5162 21.065 11.8873 23.1537C11.3235 23.6049 11 24.2775 11 24.9999C11 25.7224 11.3235 26.395 11.8819 26.8416C12.7128 27.5213 13.7417 28.2511 14.8572 28.9525C15.1733 29.1509 15.5908 29.0559 15.7895 28.7399C15.9883 28.4235 15.8929 28.0063 15.5769 27.8076C14.508 27.1356 13.5264 26.4396 12.7324 25.7903C12.4907 25.5969 12.3521 25.3089 12.3521 24.9999C12.3521 24.691 12.4907 24.4026 12.7304 24.211C15.2193 22.2332 20.2532 18.9155 26 18.9155C31.7468 18.9155 36.7807 22.2336 39.268 24.2096C39.5093 24.403 39.6479 24.691 39.6479 25.0003C39.6479 25.3093 39.5093 25.5973 39.2696 25.7893C36.7807 27.7667 31.7465 31.0844 26 31.0844C25.6268 31.0844 25.3239 31.3873 25.3239 31.7605C25.3239 32.1337 25.6268 32.4366 26 32.4366C32.1572 32.4366 37.4838 28.9353 40.1124 26.8456C40.6765 26.3943 41 25.7216 41 24.9996C41 24.2775 40.6765 23.6045 40.1107 23.152Z" fill="white"/>
<path d="M26 17.5637C21.8993 17.5637 18.5634 20.8997 18.5634 25.0003C18.5634 29.1009 21.8993 32.4369 26 32.4369C26.3731 32.4369 26.676 32.134 26.676 31.7609C26.676 31.3877 26.3731 31.0848 26 31.0848C22.6451 31.0848 19.9155 28.3552 19.9155 25.0003C19.9155 21.6454 22.6451 18.9158 26 18.9158C29.3549 18.9158 32.0844 21.6454 32.0844 25.0003C32.0844 25.3735 32.3873 25.6764 32.7605 25.6764C33.1337 25.6764 33.4366 25.3735 33.4366 25.0003C33.4366 20.8997 30.1006 17.5637 26 17.5637Z" fill="white"/>
</svg>
