<svg width="25" height="20" viewBox="0 0 25 20" fill="none" xmlns="http://www.w3.org/2000/svg">
<path d="M25 2.52211C24.0703 2.91051 23.0797 3.16795 22.0469 3.29295C23.1094 2.68878 23.9203 1.73937 24.3016 0.595029C23.3109 1.15753 22.2172 1.55485 21.0516 1.77658C20.1109 0.822708 18.7703 0.231934 17.3078 0.231934C14.4703 0.231934 12.1859 2.42539 12.1859 5.11437C12.1859 5.50128 12.2203 5.8733 12.3047 6.22747C8.04375 6.02955 4.27344 4.08461 1.74062 1.12181C1.29844 1.85247 1.03906 2.68878 1.03906 3.58908C1.03906 5.27955 1.95312 6.77806 3.31562 7.64562C2.49219 7.63074 1.68437 7.40306 1 7.04443C1 7.05931 1 7.07866 1 7.098C1 9.47003 2.77656 11.4403 5.10625 11.8941C4.68906 12.0028 4.23438 12.0548 3.7625 12.0548C3.43438 12.0548 3.10312 12.037 2.79219 11.9715C3.45625 13.9046 5.34063 15.3257 7.58125 15.3718C5.8375 16.6709 3.62344 17.4537 1.22656 17.4537C0.80625 17.4537 0.403125 17.4358 0 17.3867C2.27031 18.781 4.96094 19.5772 7.8625 19.5772C17.2937 19.5772 22.45 12.1367 22.45 5.68729C22.45 5.47152 22.4422 5.26318 22.4312 5.05634C23.4484 4.36884 24.3031 3.51021 25 2.52211Z" fill="white"/>
</svg>
